# File created by Blade
# Date/Time:  Wed Jan 21 19:03:07 2015
# Frame Rate: 120.000 fps
#------------------------------------------------------
:FULLY-SPECIFIED
:DEGREES
2113
root -3.729815 29.523927 -8.023722 132.946437 19.694300 5.153414
RightUpLeg -119.791184 -14.252023 30.685528
RightLeg -9.510241 -0.000000 0.000000
RightFoot -10.041427 -3.463317 44.202908
RightToeBase 22.671559 -0.000000 -0.000000
LeftUpLeg -138.159271 6.977079 -17.409724
LeftLeg -9.729735 -0.000000 0.000000
LeftFoot 11.227987 -7.065596 -23.708657
LeftToeBase 9.487027 -0.000000 -0.000000
Spine 22.563081 14.409327 -16.020348
RightShoulder 7.022690 46.460450 -52.388834
RightArm 32.001127 14.983600 97.465417
RightForeArm 47.514447 -0.000000 113.516875
RightHand 11.065658 0.000000 -33.272819
RightHandThumb1 -24.326973 -0.000000 -32.862282
LeftShoulder 15.305071 37.128711 19.747639
LeftArm 137.372073 -17.541079 -95.597916
LeftForeArm -24.882911 -0.000000 93.226672
LeftHand -27.542472 -0.000000 -5.998514
LeftHandThumb1 -26.253704 0.000000 33.147579
Head 17.102917 19.653935 -40.789897
2114
root -3.730558 29.520228 -8.009699 132.889024 19.662326 5.103499
RightUpLeg -119.719429 -14.242831 30.641931
RightLeg -9.542939 -0.000000 0.000000
RightFoot -10.006483 -3.484049 44.267905
RightToeBase 22.637778 -0.000000 -0.000000
LeftUpLeg -138.148100 6.945772 -17.547463
LeftLeg -9.658133 -0.000000 0.000000
LeftFoot 11.186355 -7.352374 -23.513456
LeftToeBase 9.379770 -0.000000 -0.000000
Spine 22.631142 14.462531 -16.061930
RightShoulder 7.006234 46.446258 -52.403479
RightArm 32.017288 14.987156 97.470685
RightForeArm 47.553168 0.000000 113.515197
RightHand 11.082707 -0.000000 -33.231630
RightHandThumb1 -24.326973 -0.000000 -32.862282
LeftShoulder 15.245443 37.034212 19.719153
LeftArm 137.242576 -17.512895 -95.560219
LeftForeArm -24.880194 -0.000000 93.240347
LeftHand -27.533786 -0.000000 -5.988887
LeftHandThumb1 -26.253704 0.000000 33.147579
Head 17.087934 19.619383 -40.862117
2115
root -3.730956 29.518450 -7.997031 132.885113 19.640191 5.097871
RightUpLeg -119.695565 -14.256825 30.620299
RightLeg -9.558117 -0.000000 0.000000
RightFoot -10.021576 -3.481467 44.433380
RightToeBase 22.721122 -0.000000 -0.000000
LeftUpLeg -138.118470 6.982675 -17.549465
LeftLeg -9.655580 -0.000000 0.000000
LeftFoot 11.116501 -7.352067 -23.469979
LeftToeBase 9.452864 -0.000000 -0.000000
Spine 22.642706 14.494412 -16.069574
RightShoulder 7.063038 46.427084 -52.338069
RightArm 32.010175 14.995132 97.417479
RightForeArm 47.603932 -0.000000 113.518424
RightHand 11.063140 0.000000 -33.280872
RightHandThumb1 -24.326973 -0.000000 -32.862282
LeftShoulder 15.250357 36.937570 19.739886
LeftArm 137.088349 -17.492131 -95.536279
LeftForeArm -24.869025 -0.000000 93.257124
LeftHand -27.505441 0.000000 -5.969963
LeftHandThumb1 -26.253704 0.000000 33.147579
Head 17.201680 19.638719 -40.827289
2116
root -3.731701 29.518308 -7.984467 132.880879 19.614497 5.100181
RightUpLeg -119.674310 -14.284243 30.587830
RightLeg -9.568396 -0.000000 0.000000
RightFoot -10.030433 -3.506537 44.512714
RightToeBase 22.712057 -0.000000 -0.000000
LeftUpLeg -138.069526 7.013483 -17.535869
LeftLeg -9.680514 -0.000000 0.000000
LeftFoot 11.084029 -7.278443 -23.427652
LeftToeBase 9.422714 -0.000000 -0.000000
Spine 22.671613 14.492210 -16.074390
RightShoulder 7.118845 46.440531 -52.295955
RightArm 32.007615 15.028248 97.389770
RightForeArm 47.659280 -0.000000 113.522395
RightHand 11.105899 -0.000000 -33.245080
RightHandThumb1 -24.326973 -0.000000 -32.862282
LeftShoulder 15.220748 36.838716 19.715050
LeftArm 136.945732 -17.474771 -95.520842
LeftForeArm -24.814646 0.000000 93.257109
LeftHand -27.443046 -0.000000 -6.056695
LeftHandThumb1 -26.253704 0.000000 33.147579
Head 17.243349 19.663301 -40.806123
2117
root -3.732028 29.521297 -7.971655 132.908462 19.588160 5.134501
RightUpLeg -119.685059 -14.303931 30.607683
RightLeg -9.587673 -0.000000 0.000000
RightFoot -10.015534 -3.514419 44.603132
RightToeBase 22.741295 -0.000000 -0.000000
LeftUpLeg -138.017684 7.051452 -17.462183
LeftLeg -9.724151 -0.000000 0.000000
LeftFoot 11.094264 -7.050309 -23.649534
LeftToeBase 9.465764 -0.000000 -0.000000
Spine 22.706073 14.464795 -16.047052
RightShoulder 7.105376 46.453237 -52.312845
RightArm 32.015761 15.025562 97.374036
RightForeArm 47.666271 0.000000 113.505327
RightHand 11.106364 -0.000000 -33.295161
RightHandThumb1 -24.326973 -0.000000 -32.862282
LeftShoulder 15.184841 36.707392 19.682564
LeftArm 136.793324 -17.460799 -95.499246
LeftForeArm -24.841268 -0.000000 93.279177
LeftHand -27.425774 -0.000000 -5.987853
LeftHandThumb1 -26.253704 0.000000 33.147579
Head 17.219673 19.674958 -40.814698
2118
root -3.734988 29.522913 -7.957381 132.897436 19.560482 5.148632
RightUpLeg -119.655896 -14.323944 30.607477
RightLeg -9.616073 -0.000000 0.000000
RightFoot -9.972813 -3.507594 44.676042
RightToeBase 22.683942 -0.000000 -0.000000
LeftUpLeg -137.965303 7.032075 -17.472469
LeftLeg -9.731814 -0.000000 0.000000
LeftFoot 11.097090 -6.987572 -23.665650
LeftToeBase 9.416019 -0.000000 -0.000000
Spine 22.773918 14.448046 -16.043897
RightShoulder 7.087852 46.514296 -52.333556
RightArm 31.982431 15.031717 97.359321
RightForeArm 47.685453 -0.000000 113.489856
RightHand 11.108737 -0.000000 -33.304091
RightHandThumb1 -24.326973 -0.000000 -32.862282
LeftShoulder 15.128766 36.594476 19.661893
LeftArm 136.663499 -17.458040 -95.502984
LeftForeArm -24.880363 -0.000000 93.297531
LeftHand -27.400732 -0.000000 -6.013878
LeftHandThumb1 -26.253704 0.000000 33.147579
Head 17.178359 19.716812 -40.777171
2119
root -3.737112 29.523971 -7.944949 132.871640 19.513494 5.141264
RightUpLeg -119.621266 -14.361233 30.551703
RightLeg -9.633930 -0.000000 0.000000
RightFoot -9.970237 -3.530587 44.869985
RightToeBase 22.686847 -0.000000 -0.000000
LeftUpLeg -137.899053 7.037862 -17.505144
LeftLeg -9.752320 -0.000000 0.000000
LeftFoot 11.073275 -6.970055 -23.618830
LeftToeBase 9.413182 -0.000000 -0.000000
Spine 22.847825 14.431977 -16.065324
RightShoulder 7.056303 46.620603 -52.363828
RightArm 31.907233 15.047995 97.360441
RightForeArm 47.695238 -0.000000 113.451037
RightHand 11.068852 -0.000000 -33.136723
RightHandThumb1 -24.326973 -0.000000 -32.862282
LeftShoulder 15.074118 36.478804 19.644664
LeftArm 136.532583 -17.474132 -95.506715
LeftForeArm -24.982336 -0.000000 93.321530
LeftHand -27.368989 -0.000000 -5.933207
LeftHandThumb1 -26.253704 0.000000 33.147579
Head 17.116811 19.785560 -40.745039
2120
root -3.740138 29.524171 -7.934470 132.856744 19.482909 5.131077
RightUpLeg -119.595504 -14.355890 30.539137
RightLeg -9.662191 -0.000000 0.000000
RightFoot -9.958243 -3.565075 44.902402
RightToeBase 22.729080 -0.000000 -0.000000
LeftUpLeg -137.864773 7.059526 -17.526069
LeftLeg -9.749585 -0.000000 0.000000
LeftFoot 11.049728 -6.954164 -23.617823
LeftToeBase 9.409740 -0.000000 -0.000000
Spine 22.886617 14.428671 -16.082023
RightShoulder 7.046887 46.658698 -52.386787
RightArm 31.878092 15.038714 97.348763
RightForeArm 47.695437 -0.000000 113.434029
RightHand 11.052262 -0.000000 -33.246753
RightHandThumb1 -24.326973 -0.000000 -32.862282
LeftShoulder 15.039004 36.383171 19.634633
LeftArm 136.408896 -17.490427 -95.518090
LeftForeArm -25.048770 0.000000 93.327930
LeftHand -27.331910 -0.000000 -5.922554
LeftHandThumb1 -26.253704 0.000000 33.147579
Head 17.128472 19.876909 -40.653617
